<svg width="39" height="45" viewBox="0 0 39 45" fill="none" xmlns="http://www.w3.org/2000/svg">
<path d="M36.432 41.3081H33.7998C33.7998 39.6718 33.7998 31.7107 33.7998 30.3747C35.6315 29.8828 35.6125 27.299 33.7998 26.8115C33.7998 25.2815 33.7998 16.6285 33.7998 15.3299C34.6556 15.1001 35.2112 14.2858 35.1669 13.5042C35.1671 13.4636 35.1647 13.4336 35.1611 13.4004C35.1566 13.3451 35.1502 13.2923 35.1402 13.2349C34.995 12.3941 34.2917 11.7656 33.4473 11.7082L31.6095 6.9301C31.3443 6.24069 30.7941 5.81231 30.1736 5.81231H28.5843C28.2201 5.81231 27.9251 6.10735 27.9251 6.47149C27.9251 6.83562 28.2201 7.13067 28.5843 7.13067H30.1733C30.2003 7.13357 30.3032 7.20634 30.3789 7.40331L32.0326 11.7028H6.81909C8.25021 8.13429 8.46282 7.15431 8.67815 7.13067H9.66648V9.95873C9.66648 10.3229 9.96162 10.6179 10.3257 10.6179H15.8827C16.2468 10.6179 16.5419 10.3229 16.5419 9.95873V7.13076H25.5077C25.8718 7.13076 26.1668 6.83571 26.1668 6.47157C26.1668 6.10744 25.8718 5.81239 25.5077 5.81239H16.5419V3.62523C17.4664 3.37307 18.1242 2.401 17.8394 1.36881C17.624 0.562677 16.8918 0 16.0576 0H10.2507C9.22747 0 8.4049 0.834875 8.4049 1.84588C8.4049 2.6594 8.93444 3.3504 9.66657 3.59552V5.81222H8.67824C8.05773 5.81222 7.50753 6.24051 7.24237 6.93001L5.39789 11.7252C4.49569 11.8638 3.83168 12.6425 3.83168 13.5488C3.83168 14.4013 4.41325 15.1185 5.19996 15.3298C5.19996 16.6709 5.19996 19.6196 5.19996 20.9605C5.19996 21.3246 5.4951 21.6196 5.85914 21.6196C6.22319 21.6196 6.51832 21.3246 6.51832 20.9605V17.4613H32.4812V26.7476H6.5185V24.0367C6.5185 23.6726 6.22336 23.3775 5.85932 23.3775C5.49527 23.3775 5.20014 23.6726 5.20014 24.0367V26.8113C3.37254 27.3028 3.38115 29.8861 5.20014 30.3745C5.20014 31.7088 5.20014 39.6657 5.20014 41.308H2.56781C1.55276 41.308 0.721924 42.1341 0.721924 43.1539C0.721924 44.1717 1.55003 44.9998 2.56781 44.9998H25.5077C25.8719 44.9998 26.1669 44.7048 26.1669 44.3406C26.1669 43.9765 25.8719 43.6815 25.5077 43.6815H2.56781C2.29543 43.6815 2.03818 43.4707 2.04187 43.1277C2.07263 42.8029 2.31995 42.6265 2.56781 42.6265C6.82304 42.6265 32.1608 42.6265 36.432 42.6265C36.6936 42.6265 36.9185 42.8202 36.954 43.0865C36.9942 43.4203 36.7349 43.6815 36.432 43.6815H28.5841C28.22 43.6815 27.9249 43.9765 27.9249 44.3406C27.9249 44.7048 28.22 44.9998 28.5841 44.9998H36.432C37.4498 44.9998 38.2778 44.1716 38.2778 43.1539C38.2779 42.1428 37.4544 41.3081 36.432 41.3081ZM15.2236 9.29955H10.9849C10.9849 8.61207 10.9849 4.37002 10.9849 3.69185H15.2236C15.2236 4.37037 15.2236 8.61233 15.2236 9.29955ZM9.73715 1.72934C9.74304 1.72055 9.83005 1.31845 10.2506 1.31845H16.0575C16.2811 1.31845 16.4929 1.45714 16.5684 1.71914C16.6455 2.06253 16.395 2.3734 16.0575 2.3734C14.6013 2.3734 11.5277 2.3734 10.2506 2.3734C9.91609 2.37349 9.66042 2.06192 9.73715 1.72934ZM5.67756 14.0763C5.34208 14.0763 5.08553 13.7633 5.16507 13.4286C5.17096 13.4198 5.25938 13.0214 5.67756 13.0214C6.61289 13.0214 31.8383 13.0214 33.3221 13.0214C33.5763 13.0214 33.8291 13.2004 33.8494 13.5625C33.8421 13.847 33.6084 14.0763 33.3221 14.0763H33.1405C31.922 14.0763 6.90917 14.0763 5.67756 14.0763ZM6.5185 16.1428V15.3947H32.4814V16.1428H6.5185ZM15.0556 41.3081H10.5205V34.9789H15.0556V41.3081ZM20.9092 41.3081H16.374V34.9789H20.9092V41.3081ZM32.4813 41.3081H22.2277V34.7234C22.2277 34.1372 21.7509 33.6603 21.1646 33.6603C19.8122 33.6603 11.6148 33.6603 10.3037 33.6603C9.69619 33.6603 9.20189 34.1546 9.20189 34.7621V41.3081H6.51832V32.5061H32.4812V41.3081H32.4813ZM32.4814 31.1877H6.5185V30.4396H32.4814V31.1877ZM33.3222 29.1211C29.1041 29.1211 9.78136 29.1211 5.67765 29.1211C5.38119 29.1211 5.13009 28.8727 5.15285 28.5542C5.19504 27.9844 5.83339 28.0728 5.85941 28.0662H33.1407C33.2048 28.0826 33.8139 27.9687 33.8496 28.6073C33.8422 28.8919 33.6085 29.1211 33.3222 29.1211Z" fill="#DB2947"/>
</svg>
