<svg width="40" height="56" viewBox="0 0 40 56" fill="none" xmlns="http://www.w3.org/2000/svg">
<path d="M29.016 13.9126L19.7942 50.7687L10.5724 13.9126L19.7409 0L29.016 13.9126Z" fill="#DB2947"/>
<path d="M28.9472 44.9106C30.1748 45.1003 31.3202 45.3275 32.3643 45.5868C36.3286 46.5711 38.8325 48.0176 38.8325 49.6301C38.8325 51.2426 36.3286 52.6891 32.3643 53.6734C29.0378 54.4994 24.6829 54.9999 19.9162 54.9999C15.1496 54.9999 10.7947 54.4994 7.46813 53.6734C3.50386 52.6891 1 51.2426 1 49.6301C1 48.0176 3.50386 46.5711 7.46813 45.5868C8.51222 45.3275 9.65762 45.1003 10.8853 44.9106" stroke="#DB2947" stroke-width="1.70856"/>
</svg>
