<svg width="40" height="57" viewBox="0 0 40 57" fill="none" xmlns="http://www.w3.org/2000/svg">
<path d="M29.0156 13.9126L19.7938 50.7687L10.5721 13.9126L19.7406 0L29.0156 13.9126Z" fill="#2B4761"/>
<path d="M28.9472 45.9106C30.1748 46.1003 31.3202 46.3275 32.3643 46.5868C36.3286 47.5711 38.8325 49.0176 38.8325 50.6301C38.8325 52.2426 36.3286 53.6891 32.3643 54.6734C29.0378 55.4994 24.6829 55.9999 19.9162 55.9999C15.1496 55.9999 10.7947 55.4994 7.46813 54.6734C3.50386 53.6891 1 52.2426 1 50.6301C1 49.0176 3.50386 47.5711 7.46813 46.5868C8.51222 46.3275 9.65762 46.1003 10.8853 45.9106" stroke="#2B4761" stroke-width="1.70856"/>
</svg>
