<svg width="45" height="43" viewBox="0 0 45 43" fill="none" xmlns="http://www.w3.org/2000/svg">
<path d="M43.5938 41.1875H42.8906C42.7041 41.1875 42.5253 41.2616 42.3934 41.3934C42.2616 41.5253 42.1875 41.7041 42.1875 41.8906C42.1875 42.0771 42.2616 42.2559 42.3934 42.3878C42.5253 42.5197 42.7041 42.5938 42.8906 42.5938H43.5938C43.7802 42.5938 43.9591 42.5197 44.0909 42.3878C44.2228 42.2559 44.2969 42.0771 44.2969 41.8906C44.2969 41.7041 44.2228 41.5253 44.0909 41.3934C43.9591 41.2616 43.7802 41.1875 43.5938 41.1875Z" fill="#DB2947"/>
<path d="M30.9375 29.9375C30.751 29.9375 30.5722 30.0116 30.4403 30.1434C30.3085 30.2753 30.2344 30.4541 30.2344 30.6406V39.8691C30.2344 40.0556 30.3085 40.2345 30.4403 40.3663C30.5722 40.4982 30.751 40.5723 30.9375 40.5723C31.124 40.5723 31.3028 40.4982 31.4347 40.3663C31.5665 40.2345 31.6406 40.0556 31.6406 39.8691V30.6406C31.6406 30.4541 31.5665 30.2753 31.4347 30.1434C31.3028 30.0116 31.124 29.9375 30.9375 29.9375Z" fill="#DB2947"/>
<path d="M41.9818 38.5807C41.8498 38.449 41.6709 38.375 41.4844 38.375C41.2979 38.375 41.119 38.449 40.9869 38.5807L39.2941 40.2743L31.5545 26.0853C31.4941 25.9743 31.4049 25.8817 31.2963 25.8172C31.1878 25.7527 31.0638 25.7187 30.9375 25.7188H12.6562C12.53 25.7187 12.406 25.7527 12.2974 25.8172C12.1888 25.8817 12.0996 25.9743 12.0393 26.0853L4.29961 40.2743L2.60684 38.5807C2.54151 38.5153 2.46395 38.4635 2.3786 38.4282C2.29324 38.3928 2.20176 38.3746 2.10938 38.3746C2.01699 38.3746 1.92551 38.3928 1.84015 38.4282C1.7548 38.4635 1.67724 38.5153 1.61191 38.5807C1.54659 38.646 1.49477 38.7235 1.45941 38.8089C1.42406 38.8943 1.40586 38.9857 1.40586 39.0781C1.40586 39.1705 1.42406 39.262 1.45941 39.3473C1.49477 39.4327 1.54659 39.5103 1.61191 39.5756L3.22471 41.1875H1.40625C1.21977 41.1875 1.04093 41.2616 0.909066 41.3934C0.777204 41.5253 0.703125 41.7041 0.703125 41.8906C0.703125 42.0771 0.777204 42.2559 0.909066 42.3878C1.04093 42.5197 1.21977 42.5938 1.40625 42.5938H40.7812C40.9677 42.5938 41.1466 42.5197 41.2784 42.3878C41.4103 42.2559 41.4844 42.0771 41.4844 41.8906C41.4844 41.7041 41.4103 41.5253 41.2784 41.3934C41.1466 41.2616 40.9677 41.1875 40.7812 41.1875H40.369L41.9818 39.5756C42.1135 39.4435 42.1875 39.2646 42.1875 39.0781C42.1875 38.8916 42.1135 38.7127 41.9818 38.5807ZM5.40352 41.1875L13.0737 27.125H29.7527L22.0825 41.1875H5.40352ZM23.6848 41.1875L30.9375 27.8905L38.1902 41.1875H23.6848Z" fill="#DB2947"/>
<path d="M7.11914 19.3906H16.2598C17.1569 19.3912 18.0203 19.0489 18.6733 18.4336C19.3262 17.8184 19.7192 16.9768 19.7718 16.0812C19.8244 15.1856 19.5327 14.3038 18.9563 13.6163C18.38 12.9288 17.5626 12.4877 16.6715 12.3833C16.3563 11.4786 15.8006 10.6769 15.0642 10.0641C14.3278 9.4513 13.4385 9.05062 12.4916 8.90503C11.5447 8.75944 10.576 8.87444 9.68956 9.23769C8.80308 9.60095 8.03226 10.1987 7.4598 10.9669C7.34631 10.9577 7.23275 10.9531 7.11914 10.9531C6.00026 10.9531 4.9272 11.3976 4.13603 12.1888C3.34486 12.9799 2.90039 14.053 2.90039 15.1719C2.90039 16.2907 3.34486 17.3638 4.13603 18.155C4.9272 18.9461 6.00026 19.3906 7.11914 19.3906ZM7.11914 12.3594C7.30121 12.3594 7.48285 12.3771 7.66151 12.4121C7.80199 12.4395 7.94749 12.4235 8.07861 12.3661C8.20973 12.3087 8.32024 12.2127 8.3954 12.0909C8.7965 11.4391 9.38196 10.9209 10.0777 10.602C10.7734 10.2831 11.5481 10.1777 12.3037 10.2992C13.0593 10.4208 13.7619 10.7637 14.3225 11.2847C14.8831 11.8057 15.2765 12.4813 15.453 13.2261C15.4911 13.3853 15.5833 13.5263 15.7139 13.6251C15.8444 13.7238 16.0052 13.7741 16.1688 13.7675C16.1989 13.7661 16.2295 13.7655 16.2596 13.7655C16.819 13.7655 17.3556 13.9878 17.7511 14.3833C18.1467 14.7789 18.369 15.3155 18.369 15.8749C18.369 16.4343 18.1467 16.9709 17.7511 17.3665C17.3556 17.762 16.819 17.9843 16.2596 17.9843H7.11914C6.37322 17.9843 5.65785 17.688 5.1304 17.1605C4.60296 16.6331 4.30664 15.9177 4.30664 15.1718C4.30664 14.4259 4.60296 13.7105 5.1304 13.183C5.65785 12.6556 6.37322 12.3593 7.11914 12.3593V12.3594Z" fill="#DB2947"/>
<path d="M35.8594 11.6562C36.6938 11.6562 37.5094 11.4088 38.2032 10.9453C38.8969 10.4817 39.4377 9.82282 39.757 9.05194C40.0763 8.28107 40.1598 7.43282 39.9971 6.61446C39.8343 5.79611 39.4325 5.0444 38.8425 4.45439C38.2525 3.86439 37.5008 3.4626 36.6824 3.29981C35.8641 3.13703 35.0158 3.22058 34.2449 3.53988C33.4741 3.85919 32.8152 4.39992 32.3516 5.09369C31.888 5.78746 31.6406 6.60311 31.6406 7.4375C31.6419 8.556 32.0867 9.62834 32.8776 10.4192C33.6685 11.2101 34.7409 11.655 35.8594 11.6562ZM35.8594 4.625C36.4156 4.625 36.9594 4.78995 37.4219 5.09899C37.8844 5.40803 38.2449 5.84729 38.4578 6.3612C38.6707 6.87512 38.7263 7.44062 38.6178 7.98619C38.5093 8.53176 38.2414 9.0329 37.8481 9.42623C37.4548 9.81957 36.9536 10.0874 36.4081 10.196C35.8625 10.3045 35.297 10.2488 34.7831 10.0359C34.2692 9.82304 33.8299 9.46255 33.5209 9.00004C33.2118 8.53752 33.0469 7.99376 33.0469 7.4375C33.0477 6.69183 33.3443 5.97695 33.8716 5.44969C34.3988 4.92242 35.1137 4.62584 35.8594 4.625Z" fill="#DB2947"/>
<path d="M35.8594 2.51562C36.0459 2.51562 36.2247 2.44155 36.3566 2.30968C36.4884 2.17782 36.5625 1.99898 36.5625 1.8125V1.10938C36.5625 0.922895 36.4884 0.744052 36.3566 0.612191C36.2247 0.480329 36.0459 0.40625 35.8594 0.40625C35.6729 0.40625 35.4941 0.480329 35.3622 0.612191C35.2303 0.744052 35.1562 0.922895 35.1562 1.10938V1.8125C35.1562 1.99898 35.2303 2.17782 35.3622 2.30968C35.4941 2.44155 35.6729 2.51562 35.8594 2.51562Z" fill="#DB2947"/>
<path d="M35.1562 13.0625V13.7656C35.1562 13.9521 35.2303 14.1309 35.3622 14.2628C35.4941 14.3947 35.6729 14.4688 35.8594 14.4688C36.0459 14.4688 36.2247 14.3947 36.3566 14.2628C36.4884 14.1309 36.5625 13.9521 36.5625 13.7656V13.0625C36.5625 12.876 36.4884 12.6972 36.3566 12.5653C36.2247 12.4335 36.0459 12.3594 35.8594 12.3594C35.6729 12.3594 35.4941 12.4335 35.3622 12.5653C35.2303 12.6972 35.1562 12.876 35.1562 13.0625Z" fill="#DB2947"/>
<path d="M40.7812 7.4375C40.7812 7.62398 40.8553 7.80282 40.9872 7.93468C41.1191 8.06655 41.2979 8.14062 41.4844 8.14062H42.1875C42.374 8.14062 42.5528 8.06655 42.6847 7.93468C42.8165 7.80282 42.8906 7.62398 42.8906 7.4375C42.8906 7.25102 42.8165 7.07218 42.6847 6.94032C42.5528 6.80845 42.374 6.73438 42.1875 6.73438H41.4844C41.2979 6.73438 41.1191 6.80845 40.9872 6.94032C40.8553 7.07218 40.7812 7.25102 40.7812 7.4375Z" fill="#DB2947"/>
<path d="M29.5312 8.14062H30.2344C30.4209 8.14062 30.5997 8.06655 30.7316 7.93468C30.8634 7.80282 30.9375 7.62398 30.9375 7.4375C30.9375 7.25102 30.8634 7.07218 30.7316 6.94032C30.5997 6.80845 30.4209 6.73438 30.2344 6.73438H29.5312C29.3448 6.73438 29.1659 6.80845 29.0341 6.94032C28.9022 7.07218 28.8281 7.25102 28.8281 7.4375C28.8281 7.62398 28.9022 7.80282 29.0341 7.93468C29.1659 8.06655 29.3448 8.14062 29.5312 8.14062Z" fill="#DB2947"/>
<path d="M39.8367 4.16323C39.9291 4.16336 40.0205 4.14523 40.1059 4.10989C40.1912 4.07455 40.2687 4.02269 40.3339 3.9573L40.8311 3.46011C40.963 3.32824 41.037 3.14939 41.037 2.96291C41.037 2.77642 40.963 2.59758 40.8311 2.46571C40.6992 2.33385 40.5204 2.25977 40.3339 2.25977C40.1474 2.25977 39.9686 2.33385 39.8367 2.46571L39.3397 2.96291C39.2413 3.06124 39.1744 3.18653 39.1472 3.32293C39.1201 3.45932 39.134 3.6007 39.1873 3.72918C39.2405 3.85767 39.3306 3.96748 39.4462 4.04474C39.5619 4.122 39.6978 4.16324 39.8369 4.16323H39.8367Z" fill="#DB2947"/>
<path d="M31.3846 10.9179L30.8874 11.4151C30.8221 11.4804 30.7703 11.5579 30.735 11.6432C30.6996 11.7285 30.6815 11.8199 30.6815 11.9123C30.6815 12.0046 30.6996 12.096 30.735 12.1813C30.7703 12.2666 30.8221 12.3442 30.8874 12.4095C30.9527 12.4747 31.0302 12.5265 31.1155 12.5619C31.2008 12.5972 31.2923 12.6154 31.3846 12.6154C31.4769 12.6154 31.5684 12.5972 31.6537 12.5619C31.739 12.5265 31.8165 12.4747 31.8818 12.4095L32.379 11.9123C32.4443 11.847 32.4961 11.7694 32.5314 11.6841C32.5668 11.5988 32.5849 11.5074 32.5849 11.4151C32.5849 11.3227 32.5668 11.2313 32.5314 11.146C32.4961 11.0607 32.4443 10.9832 32.379 10.9179C32.3137 10.8526 32.2362 10.8008 32.1509 10.7654C32.0656 10.7301 31.9741 10.7119 31.8818 10.7119C31.7895 10.7119 31.698 10.7301 31.6127 10.7654C31.5274 10.8008 31.4499 10.8526 31.3846 10.9179Z" fill="#DB2947"/>
<path d="M40.3341 10.9178C40.2692 10.8506 40.1916 10.7971 40.1058 10.7602C40.02 10.7234 39.9278 10.704 39.8344 10.7032C39.7411 10.7023 39.6485 10.7201 39.5621 10.7555C39.4756 10.7908 39.3971 10.843 39.3311 10.9091C39.2651 10.9751 39.2129 11.0536 39.1775 11.14C39.1422 11.2264 39.1244 11.319 39.1252 11.4124C39.126 11.5057 39.1454 11.598 39.1823 11.6838C39.2191 11.7696 39.2727 11.8471 39.3398 11.912L39.837 12.4092C39.9689 12.5411 40.1477 12.6151 40.3342 12.6151C40.5207 12.6151 40.6996 12.5411 40.8314 12.4092C40.9633 12.2773 41.0374 12.0985 41.0374 11.912C41.0374 11.7255 40.9633 11.5467 40.8314 11.4148L40.3341 10.9178Z" fill="#DB2947"/>
<path d="M31.3845 3.95713C31.4493 4.02428 31.5269 4.07785 31.6127 4.1147C31.6985 4.15155 31.7908 4.17095 31.8841 4.17176C31.9775 4.17257 32.0701 4.15478 32.1565 4.11942C32.2429 4.08407 32.3214 4.03186 32.3874 3.96584C32.4534 3.89982 32.5056 3.82132 32.541 3.73491C32.5763 3.6485 32.5941 3.55591 32.5933 3.46255C32.5925 3.36919 32.5731 3.27692 32.5363 3.19114C32.4994 3.10536 32.4458 3.02777 32.3787 2.96291L31.8815 2.46571C31.7496 2.33385 31.5708 2.25977 31.3843 2.25977C31.1978 2.25977 31.019 2.33385 30.8871 2.46571C30.7552 2.59758 30.6812 2.77642 30.6812 2.96291C30.6812 3.14939 30.7552 3.32824 30.8871 3.46011L31.3845 3.95713Z" fill="#DB2947"/>
</svg>
