<svg width="45" height="37" viewBox="0 0 45 37" fill="none" xmlns="http://www.w3.org/2000/svg">
<path d="M44.121 3.55859C44.6064 3.55859 44.9999 3.16511 44.9999 2.67969C44.9999 2.19427 44.6064 1.80078 44.121 1.80078H27.1581V0.921875C27.1581 0.436455 26.7646 0.0429688 26.2792 0.0429688C25.7938 0.0429688 25.4003 0.436455 25.4003 0.921875V1.80078H8.43738C7.95196 1.80078 7.55848 2.19427 7.55848 2.67969C7.55848 3.16511 7.95196 3.55859 8.43738 3.55859H25.4003V6.19531H20.7421C20.3827 6.19531 20.0595 6.41407 19.926 6.74779L18.3892 10.5898H9.2284L6.85535 7.42578C6.68933 7.20447 6.42882 7.07422 6.15223 7.07422H0.87879C0.587169 7.07422 0.314533 7.21889 0.150968 7.46041C-0.0125084 7.70193 -0.0455553 8.00876 0.0627259 8.27955L1.97883 13.0699C0.754689 13.8707 -0.000115859 15.2347 -0.000115859 16.7422C-0.000115859 19.1653 1.97127 21.1367 4.39442 21.1367C6.51662 21.1367 8.29219 19.6246 8.70053 17.6211H18.1054V18.5C18.1054 23.6674 21.5765 28.1863 26.5487 29.5308L23.7145 35.1992H22.4999C21.046 35.1992 19.8632 34.0164 19.8632 32.5625C19.8632 32.0771 19.4697 31.6836 18.9843 31.6836C18.4988 31.6836 18.1054 32.0771 18.1054 32.5625C18.1054 34.9856 20.0767 36.957 22.4999 36.957H27.5975C28.083 36.957 28.4764 36.5635 28.4764 36.0781C28.4764 35.5927 28.083 35.1992 27.5975 35.1992H25.6798L28.348 29.8626C28.7396 29.903 29.1351 29.9258 29.531 29.9258H34.7887L37.4254 35.1992H35.5077C35.0223 35.1992 34.6288 35.5927 34.6288 36.0781C34.6288 36.5635 35.0223 36.957 35.5077 36.957H40.6054C43.0285 36.957 44.9999 34.9856 44.9999 32.5625C44.9999 32.0771 44.6064 31.6836 44.121 31.6836C43.6356 31.6836 43.2421 32.0771 43.2421 32.5625C43.2421 34.0164 42.0592 35.1992 40.6054 35.1992H39.3907L36.754 29.9258H38.8475C42.2399 29.9258 44.9999 27.1658 44.9999 23.7734V22.0156C44.9999 15.9172 40.1972 10.9194 34.1754 10.6057L32.6324 6.74779C32.4988 6.41407 32.1757 6.19531 31.8163 6.19531H27.1581V3.55859H44.121ZM4.39442 19.3789C2.94053 19.3789 1.7577 18.1961 1.7577 16.7422C1.7577 15.2559 2.96197 14.1055 4.39442 14.1055C5.8483 14.1055 7.03113 15.2883 7.03113 16.7422C7.03113 18.1961 5.8483 19.3789 4.39442 19.3789ZM38.8475 28.168H29.5311C24.1975 28.168 19.8632 23.8923 19.8632 18.5V16.7422C19.8632 16.2568 19.4697 15.8633 18.9843 15.8633H8.70053C8.29219 13.8598 6.51671 12.3477 4.39442 12.3477C4.12925 12.3477 3.86777 12.3718 3.6114 12.4181L2.17702 8.83203H5.71277L8.08582 11.9961C8.25185 12.2174 8.51235 12.3477 8.78895 12.3477H25.4003V18.5C25.4003 20.9231 27.3717 22.8945 29.7948 22.8945H43.2421V23.7734C43.2421 26.1966 41.2707 28.168 38.8475 28.168ZM32.6952 12.3477V21.1367H29.7948C28.3409 21.1367 27.1581 19.9539 27.1581 18.5V12.3477H32.6952ZM43.2017 21.1367H34.453V12.388C39.084 12.8073 42.7824 16.5058 43.2017 21.1367ZM32.276 10.5898H20.2824L21.3371 7.95312H31.2213L32.276 10.5898Z" fill="#338FD1"/>
<path d="M31.5527 36.957C32.0381 36.957 32.4316 36.5635 32.4316 36.0781C32.4316 35.5927 32.0381 35.1992 31.5527 35.1992C31.0673 35.1992 30.6738 35.5927 30.6738 36.0781C30.6738 36.5635 31.0673 36.957 31.5527 36.957Z" fill="#338FD1"/>
</svg>
