<svg width="69" height="69" viewBox="0 0 69 69" fill="none" xmlns="http://www.w3.org/2000/svg">
<path d="M68.3759 52.6564C64.6069 50.3957 60.1706 49.6727 55.882 50.6286L53.4167 51.1766L52.417 44.1777L54.0708 40.8713C56.6203 35.7722 56.7942 29.843 54.5487 24.6039L52.778 20.4717C49.8073 13.5385 43.1103 9.00706 35.6083 8.77299C31.5953 6.15784 27.0814 4.40346 22.2525 3.6608L4.34999 0.906742C4.00327 0.853148 3.65655 0.967992 3.41046 1.21409L1.21421 3.41034C0.968114 3.65643 0.85327 4.00534 0.906864 4.34987L3.66093 22.2535C4.4014 27.0682 6.14702 31.57 8.75015 35.5721V39.0557C8.75015 42.3391 10.5155 45.4016 13.3581 47.0477L24.0167 53.2186C25.4823 54.0674 27.0825 54.4764 28.663 54.4764C31.2923 54.4764 33.8605 53.3335 35.6706 51.1996L51.1767 53.4144L50.6287 55.8797C49.675 60.1683 50.3947 64.6068 52.6566 68.3747C52.8545 68.7061 53.2111 68.9063 53.5939 68.9063C53.6158 68.9063 53.6387 68.9063 53.6606 68.9041C54.0686 68.88 54.4273 68.6296 54.5936 68.2566L58.798 58.7978L68.2567 54.5935C68.6297 54.4283 68.8791 54.0685 68.9042 53.6605C68.9294 53.2525 68.7248 52.8653 68.3759 52.6564ZM39.5786 14.77C44.4141 19.6055 47.61 25.9974 48.5769 32.7666L51.2117 51.2105L32.7678 48.5757C25.9986 47.6088 19.6078 44.4128 14.7712 39.5774C10.8556 35.6607 8.10155 30.8842 6.64249 25.62C8.02936 26.0269 9.46436 26.25 10.9376 26.25C19.3814 26.25 26.2501 19.3813 26.2501 10.9375C26.2501 9.46424 26.027 8.02924 25.6201 6.64127C30.8844 8.10034 35.6608 10.8544 39.5786 14.77ZM23.635 50.4711L18.4309 47.4578L17.5297 44.753C19.2895 46.0042 21.173 47.0674 23.1351 47.9664L23.635 50.4711ZM50.7655 21.3325L52.0462 24.3217L47.6844 22.5094C47.132 21.3653 46.5162 20.2552 45.8403 19.1778L50.5883 20.9585C50.6462 21.0853 50.7108 21.2057 50.7655 21.3325ZM48.9061 25.386L53.1531 27.1502C53.4681 28.1652 53.6683 29.2021 53.7897 30.2455L49.9419 28.6464C49.6498 27.5428 49.3064 26.4546 48.9061 25.386ZM52.113 39.8924L51.8723 40.3725L50.7414 32.4571C50.6834 32.0535 50.5916 31.6564 50.5194 31.2561L53.9176 32.6682C53.8531 35.1477 53.2516 37.6141 52.113 39.8924ZM48.8492 17.9703L43.5675 15.9896C42.7986 15.0292 41.9969 14.0952 41.1251 13.2235C40.5159 12.6142 39.8837 12.0346 39.2373 11.4778C43.0939 12.4589 46.4976 14.7481 48.8492 17.9703ZM4.56436 3.15221L21.92 5.82205C22.3192 5.88331 22.7086 5.97627 23.1034 6.05174C23.7291 7.60377 24.0626 9.24221 24.0626 10.9375C24.0626 18.1749 18.175 24.0625 10.9376 24.0625C9.24233 24.0625 7.6039 23.7289 6.05186 23.1044C5.9764 22.7096 5.88343 22.3202 5.82218 21.921L4.69999 14.6278C7.36655 16.4872 10.5242 17.5 13.8437 17.5H16.4064V15.3125H13.8437C10.2136 15.3125 6.80108 13.918 4.20343 11.3925L3.15343 4.56424L4.56436 3.15221ZM10.9376 39.0557V38.5689C11.6584 39.4494 12.4098 40.3102 13.2236 41.1239C13.5889 41.4892 13.9816 41.8261 14.3633 42.1739L15.573 45.803L14.4541 45.1544C12.2851 43.8988 10.9376 41.5625 10.9376 39.0557ZM26.132 51.8L25.5655 48.9694C27.7934 49.7897 30.0991 50.4044 32.4572 50.7413L32.9155 50.8069C30.985 52.2955 28.4344 52.6893 26.132 51.8ZM57.5248 56.9691C57.2776 57.0785 57.0797 57.2764 56.9703 57.5236L53.5316 65.2608C52.3711 62.4553 52.0966 59.3633 52.7648 56.3544L53.4178 53.4155L56.3567 52.7625C59.3667 52.0932 62.4587 52.3699 65.2631 53.5293L57.5248 56.9691Z" fill="#DB2947"/>
<path d="M13.125 10.9375C14.3331 10.9375 15.3125 9.95812 15.3125 8.75C15.3125 7.54188 14.3331 6.5625 13.125 6.5625C11.9169 6.5625 10.9375 7.54188 10.9375 8.75C10.9375 9.95812 11.9169 10.9375 13.125 10.9375Z" fill="#DB2947"/>
<path d="M31.3983 20.4608L33.5858 18.2733C33.7914 18.0688 33.9063 17.7898 33.9063 17.5V13.125H31.7188V17.0472L30.1722 18.5938H26.25V20.7812H30.625C30.9148 20.7812 31.1938 20.6664 31.3983 20.4608Z" fill="#DB2947"/>
<path d="M20.7812 30.625V26.25H18.5938V30.1722L17.0472 31.7188H13.125V33.9063H17.5C17.7898 33.9063 18.0688 33.7914 18.2733 33.5858L20.4608 31.3983C20.6664 31.1938 20.7812 30.9148 20.7812 30.625Z" fill="#DB2947"/>
<path d="M28.117 30.3045L30.3045 28.117C30.5102 27.9125 30.625 27.6336 30.625 27.3438V22.9688H28.4375V26.8909L26.8909 28.4375H22.9688V30.625H27.3438C27.6336 30.625 27.9125 30.5102 28.117 30.3045Z" fill="#DB2947"/>
<path d="M32.8125 27.3438H37.1875C37.4773 27.3438 37.7563 27.2289 37.9608 27.0233L40.1483 24.8358C40.3539 24.6313 40.4688 24.3523 40.4688 24.0625V19.6875H38.2812V23.6097L36.7347 25.1562H32.8125V27.3438Z" fill="#DB2947"/>
<path d="M27.3438 32.8125H25.1562V36.7347L23.6097 38.2812H19.6875V40.4688H24.0625C24.3523 40.4688 24.6313 40.3539 24.8358 40.1483L27.0233 37.9608C27.2289 37.7563 27.3438 37.4773 27.3438 37.1875V32.8125Z" fill="#DB2947"/>
<path d="M37.1875 33.9063V29.5312H35V33.4534L33.4534 35H29.5312V37.1875H33.9063C34.1961 37.1875 34.475 37.0727 34.6795 36.867L36.867 34.6795C37.0727 34.475 37.1875 34.1961 37.1875 33.9063Z" fill="#DB2947"/>
<path d="M44.8438 30.1722L43.2972 31.7188H40.4688V33.9063H43.75C44.0398 33.9063 44.3188 33.7914 44.5233 33.5858L46.7108 31.3983C46.9164 31.1938 47.0312 30.9148 47.0312 30.625V27.3438H44.8438V30.1722Z" fill="#DB2947"/>
<path d="M31.7188 43.2972L30.1722 44.8438H27.3438V47.0312H30.625C30.9148 47.0312 31.1938 46.9164 31.3983 46.7108L33.5858 44.5233C33.7914 44.3188 33.9063 44.0398 33.9063 43.75V40.4688H31.7188V43.2972Z" fill="#DB2947"/>
<path d="M41.5625 40.0159L40.0159 41.5625H36.0938V43.75H40.4688C40.7586 43.75 41.0375 43.6352 41.242 43.4295L43.4295 41.242C43.6352 41.0375 43.75 40.7586 43.75 40.4688V36.0938H41.5625V40.0159Z" fill="#DB2947"/>
</svg>
