<svg width="70" height="58" viewBox="0 0 70 58" fill="none" xmlns="http://www.w3.org/2000/svg">
<path d="M68.6327 5.75781C69.3878 5.75781 69.9999 5.14572 69.9999 4.39062C69.9999 3.63553 69.3878 3.02344 68.6327 3.02344H42.246V1.65625C42.246 0.901152 41.6339 0.289062 40.8788 0.289062C40.1237 0.289062 39.5116 0.901152 39.5116 1.65625V3.02344H13.1249C12.3698 3.02344 11.7577 3.63553 11.7577 4.39062C11.7577 5.14572 12.3698 5.75781 13.1249 5.75781H39.5116V9.85938H32.2655C31.7065 9.85938 31.2038 10.1997 30.9961 10.7188L28.6056 16.6953H14.3554L10.6639 11.7734C10.4057 11.4292 10.0005 11.2266 9.5702 11.2266H1.36708C0.913442 11.2266 0.489341 11.4516 0.234907 11.8273C-0.0193898 12.203 -0.070796 12.6803 0.0976415 13.1015L3.07825 20.5531C1.17403 21.7989 -0.000112408 23.9206 -0.000112408 26.2656C-0.000112408 30.035 3.06649 33.1016 6.83583 33.1016C10.137 33.1016 12.899 30.7493 13.5342 27.6328H28.1639V29C28.1639 37.0381 33.5635 44.0676 41.2981 46.159L36.8893 54.9766H34.9999C32.7383 54.9766 30.8983 53.1366 30.8983 50.875C30.8983 50.1199 30.2862 49.5078 29.5311 49.5078C28.776 49.5078 28.1639 50.1199 28.1639 50.875C28.1639 54.6443 31.2306 57.7109 34.9999 57.7109H42.9296C43.6847 57.7109 44.2968 57.0988 44.2968 56.3438C44.2968 55.5887 43.6847 54.9766 42.9296 54.9766H39.9464L44.097 46.6751C44.7061 46.738 45.3213 46.7734 45.9372 46.7734H54.1158L58.2173 54.9766H55.2343C54.4792 54.9766 53.8671 55.5887 53.8671 56.3438C53.8671 57.0988 54.4792 57.7109 55.2343 57.7109H63.1639C66.9333 57.7109 69.9999 54.6443 69.9999 50.875C69.9999 50.1199 69.3878 49.5078 68.6327 49.5078C67.8776 49.5078 67.2655 50.1199 67.2655 50.875C67.2655 53.1366 65.4256 54.9766 63.1639 54.9766H61.2745L57.1729 46.7734H60.4296C65.7066 46.7734 69.9999 42.4802 69.9999 37.2031V34.4688C69.9999 24.9822 62.529 17.208 53.1619 16.7199L50.7615 10.7188C50.5538 10.1997 50.0511 9.85938 49.4921 9.85938H42.246V5.75781H68.6327ZM6.83583 30.3672C4.57422 30.3672 2.73426 28.5272 2.73426 26.2656C2.73426 23.9536 4.60758 22.1641 6.83583 22.1641C9.09743 22.1641 10.9374 24.004 10.9374 26.2656C10.9374 28.5272 9.09743 30.3672 6.83583 30.3672ZM60.4296 44.0391H45.9374C37.6406 44.0391 30.8983 37.388 30.8983 29V26.2656C30.8983 25.5105 30.2862 24.8984 29.5311 24.8984H13.5342C12.899 21.7819 10.1372 19.4297 6.83583 19.4297C6.42335 19.4297 6.01661 19.4673 5.6178 19.5392L3.38655 13.9609H8.88661L12.578 18.8828C12.8363 19.2271 13.2415 19.4297 13.6718 19.4297H39.5116V29C39.5116 32.7693 42.5782 35.8359 46.3475 35.8359H67.2655V37.2031C67.2655 40.9725 64.1989 44.0391 60.4296 44.0391ZM50.8593 19.4297V33.1016H46.3475C44.0859 33.1016 42.246 31.2616 42.246 29V19.4297H50.8593ZM67.2028 33.1016H53.5936V19.4924C60.7973 20.1447 66.5505 25.8979 67.2028 33.1016ZM50.2071 16.6953H31.5505L33.1911 12.5938H48.5665L50.2071 16.6953Z" fill="#DB2947"/>
</svg>
