<svg width="70" height="70" viewBox="0 0 70 70" fill="none" xmlns="http://www.w3.org/2000/svg">
<path d="M69.9531 68.6456L54.4319 22.8273C54.1238 21.9182 52.7971 21.9181 52.4891 22.8273L48.4281 34.8153L36.8653 0.682169C36.5574 -0.227064 35.2305 -0.227064 34.9226 0.682169L25.352 28.9342L20.4492 14.5743C20.1398 13.6681 18.8174 13.6681 18.5081 14.5743L14.3013 26.8957C13.8729 28.1506 15.814 28.8134 16.2425 27.5585L19.4787 18.08L29.1439 46.3883C25.3374 45.6593 24.3718 42.1698 24.3294 42.0083C24.0872 41.3649 23.6334 41.1294 22.9678 41.3019C21.1815 41.9868 19.6583 41.9874 18.4404 41.3036C17.5262 40.7904 17.1038 40.0546 17.1037 40.0547C16.5482 39.364 15.9623 39.3372 15.346 39.9743C14.1602 41.7622 12.6899 42.78 10.9644 43.0178L14.511 32.63C14.9394 31.3751 12.9983 30.7123 12.5698 31.9672L0.0476156 68.6431C-0.0940547 69.4282 0.22949 69.8805 1.01825 70.0001H57.8143C59.1404 70.0001 59.1404 67.9489 57.8143 67.9489H39.3696L47.0823 45.1811C48.8596 45.493 50.9671 45.1119 52.5591 43.3363C53.7107 45.4928 56.3118 48.9403 61.5698 50.2914L67.5514 67.9489H63.2842C61.9582 67.9489 61.9582 70.0001 63.2842 70.0001H68.9818C69.7692 69.8811 70.0929 69.4296 69.9531 68.6456ZM35.8939 4.20765L41.4257 20.5376C39.31 20.4028 37.6701 19.0304 37.653 19.0159C36.9664 18.5881 36.4235 18.726 36.0239 19.4293C34.188 24.2782 31.2313 25.4353 28.7234 25.3746L35.8939 4.20765ZM2.45218 67.949L10.2451 45.1241C12.0477 45.1052 14.2793 44.4914 16.2255 42.2125C17.4543 43.3812 19.6285 44.3959 22.7179 43.5423C22.9691 44.1056 23.3636 44.8339 23.9535 45.5583C24.9958 46.8381 26.8501 48.3428 29.8816 48.5496L36.505 67.9491H2.45218V67.949ZM37.9354 65.7898L31.6026 47.2414V47.2412L26.4393 32.1182L28.0416 27.3882C29.5896 27.5181 31.1656 27.2821 32.5784 26.6193C34.6251 25.6592 36.2568 23.8894 37.4405 21.3496C38.4833 21.9621 40.1637 22.6929 42.1213 22.59L47.3455 38.0117L37.9354 65.7898ZM53.7393 40.9291C53.4834 40.0516 52.2461 39.9403 51.8374 40.7577C50.6864 43.0597 48.9267 43.3324 47.7515 43.2057L53.4604 26.3529L60.7573 47.8929C55.2788 45.869 53.8042 41.1462 53.7393 40.9291Z" fill="#DB2947"/>
</svg>
