<svg width="70" height="70" viewBox="0 0 70 70" fill="none" xmlns="http://www.w3.org/2000/svg">
<path d="M59.9108 37.8074C58.4011 37.4275 56.7928 37.9476 55.1317 39.353C53.5731 40.6714 51.8949 42.9401 51.2639 43.8269L45.9173 46.4177L44.643 45.8903C45.2257 45.3301 45.6891 44.6581 46.0055 43.9144C46.3219 43.1707 46.4848 42.3708 46.4844 41.5626V39.3751C46.4844 38.9399 46.3115 38.5226 46.0038 38.215C45.6962 37.9073 45.2789 37.7344 44.8438 37.7344H2.1875C1.75238 37.7344 1.33508 37.9073 1.0274 38.215C0.719726 38.5226 0.546875 38.9399 0.546875 39.3751C0.546875 39.8102 0.719726 40.2275 1.0274 40.5352C1.33508 40.8428 1.75238 41.0157 2.1875 41.0157H15.8594V66.1719H2.1875C1.75238 66.1719 1.33508 66.3448 1.0274 66.6525C0.719726 66.9601 0.546875 67.3774 0.546875 67.8126C0.546875 68.2477 0.719726 68.665 1.0274 68.9727C1.33508 69.2803 1.75238 69.4532 2.1875 69.4532H17.5C17.9351 69.4532 18.3524 69.2803 18.6601 68.9727C18.9678 68.665 19.1406 68.2477 19.1406 67.8126V56.3282H26.25C26.6851 56.3282 27.1024 56.1553 27.4101 55.8477C27.7178 55.54 27.8906 55.1227 27.8906 54.6876V54.4368L45.6678 57.3997C46.0338 57.4605 46.4097 57.3956 46.7342 57.2155L56.5779 51.7467C56.8252 51.6093 57.0328 51.4103 57.1806 51.169L62.786 42.0088C62.9186 41.7922 62.9991 41.5477 63.0211 41.2947C63.0431 41.0417 63.0061 40.787 62.9129 40.5507C62.8239 40.3247 61.9831 38.3289 59.9108 37.8074ZM24.6094 53.0469H19.1406V41.0157H24.6094V53.0469ZM54.6071 49.088L45.6418 54.0688L27.8906 51.1102V41.0157H43.2031V41.5626C43.2023 42.1395 43.0192 42.7014 42.68 43.1681C42.3409 43.6348 41.863 43.9825 41.3145 44.1614C41.3059 44.1614 41.2977 44.1602 41.2891 44.1602H36.2305C35.7953 44.1602 35.378 44.3331 35.0704 44.6407C34.7627 44.9484 34.5898 45.3657 34.5898 45.8008C34.5898 46.236 34.7627 46.6533 35.0704 46.9609C35.378 47.2686 35.7953 47.4415 36.2305 47.4415H39.8155C39.8241 47.4453 39.8323 47.4498 39.8411 47.4534L45.3422 49.7312C45.5562 49.8198 45.7865 49.8621 46.018 49.8553C46.2495 49.8485 46.4769 49.7927 46.6854 49.6917L53.0787 46.5937C53.3365 46.4687 53.5571 46.2785 53.7186 46.0419C53.7379 46.0136 55.6678 43.1981 57.2511 41.8583C58.0076 41.2183 58.6991 40.8928 59.102 40.9877C59.2305 41.0236 59.348 41.0911 59.4438 41.184L54.6071 49.088Z" fill="#DB2947"/>
<path d="M2.1875 34.4531H59.0625C59.4976 34.4531 59.9149 34.2803 60.2226 33.9726C60.5303 33.6649 60.7031 33.2476 60.7031 32.8125C60.7031 32.3774 60.5303 31.9601 60.2226 31.6524C59.9149 31.3447 59.4976 31.1719 59.0625 31.1719H56.093C55.4119 27.5961 54.1172 24.1652 52.2662 21.0309C49.4792 16.386 44.3196 10.9684 35.1192 9.6157C35.2267 9.30125 35.333 8.96506 35.4304 8.61191C36.1178 6.11748 36.0195 4.12973 35.1381 2.70361C34.53 1.71979 33.2534 0.546875 30.625 0.546875C27.9966 0.546875 26.7199 1.71979 26.1119 2.70361C25.2305 4.12973 25.1322 6.11748 25.8196 8.61191C25.917 8.96506 26.0233 9.30152 26.1308 9.6157C16.9304 10.968 11.7715 16.386 8.98379 21.0309C7.1328 24.1652 5.83812 27.5961 5.15703 31.1719H2.1875C1.75238 31.1719 1.33508 31.3447 1.0274 31.6524C0.719726 31.9601 0.546875 32.3774 0.546875 32.8125C0.546875 33.2476 0.719726 33.6649 1.0274 33.9726C1.33508 34.2803 1.75238 34.4531 2.1875 34.4531ZM28.9038 4.4275C29.253 3.62893 31.997 3.62893 32.3462 4.4275C32.9396 5.38453 32.4108 7.63711 31.7395 9.31533C31.0104 9.29072 30.2396 9.29072 29.511 9.31533C28.8392 7.63711 28.3104 5.38508 28.9038 4.4275ZM11.8556 22.6227C15.8967 15.9577 22.2116 12.5781 30.625 12.5781C39.0384 12.5781 45.3533 15.9577 49.3944 22.6227C51.3741 25.8878 52.3178 29.2004 52.7416 31.1719H8.50842C8.93225 29.2004 9.87588 25.8878 11.8556 22.6227Z" fill="#DB2947"/>
<path d="M52.5684 12.6465C53.8733 12.645 55.1243 12.126 56.0471 11.2033C56.9698 10.2806 57.4888 9.02953 57.4902 7.72461C57.4907 7.28963 57.6637 6.87261 57.9713 6.56503C58.2789 6.25746 58.6959 6.08445 59.1309 6.08398C59.566 6.08398 59.9833 5.91113 60.291 5.60346C60.5986 5.29578 60.7715 4.87848 60.7715 4.44336C60.7715 4.00824 60.5986 3.59094 60.291 3.28326C59.9833 2.97559 59.566 2.80273 59.1309 2.80273C57.8259 2.80418 56.5749 3.3232 55.6522 4.24592C54.7294 5.16863 54.2104 6.41969 54.209 7.72461C54.2085 8.15959 54.0355 8.57661 53.7279 8.88419C53.4204 9.19176 53.0033 9.36476 52.5684 9.36523C52.1332 9.36523 51.7159 9.53809 51.4083 9.84576C51.1006 10.1534 50.9277 10.5707 50.9277 11.0059C50.9277 11.441 51.1006 11.8583 51.4083 12.166C51.7159 12.4736 52.1332 12.6465 52.5684 12.6465Z" fill="#DB2947"/>
<path d="M62.8906 10.5273C61.5857 10.5288 60.3346 11.0478 59.4119 11.9705C58.4892 12.8932 57.9702 14.1443 57.9688 15.4492C57.9683 15.8842 57.7953 16.3012 57.4877 16.6088C57.1801 16.9164 56.7631 17.0894 56.3281 17.0898C55.893 17.0898 55.4757 17.2627 55.168 17.5704C54.8603 17.878 54.6875 18.2953 54.6875 18.7305C54.6875 19.1656 54.8603 19.5829 55.168 19.8906C55.4757 20.1982 55.893 20.3711 56.3281 20.3711C57.633 20.3696 58.8841 19.8506 59.8068 18.9279C60.7295 18.0052 61.2486 16.7541 61.25 15.4492C61.2505 15.0142 61.4235 14.5972 61.731 14.2896C62.0386 13.9821 62.4556 13.8091 62.8906 13.8086C63.3257 13.8086 63.743 13.6357 64.0507 13.3281C64.3584 13.0204 64.5312 12.6031 64.5312 12.168C64.5312 11.7328 64.3584 11.3155 64.0507 11.0079C63.743 10.7002 63.3257 10.5273 62.8906 10.5273Z" fill="#DB2947"/>
</svg>
