<svg width="70" height="70" viewBox="0 0 70 70" fill="none" xmlns="http://www.w3.org/2000/svg">
<path d="M67.8123 47.031C67.8692 46.2091 67.6944 45.3876 67.3077 44.66C66.921 43.9324 66.3379 43.3279 65.6248 42.9153V6.56229C65.6247 6.27223 65.5094 5.99408 65.3043 5.78901L63.1168 3.60151C62.9151 3.39831 62.6417 3.28231 62.3554 3.27842C62.0691 3.27454 61.7927 3.38307 61.5855 3.58073L20.8291 42.2514L11.7105 33.1328C11.0606 32.5111 10.196 32.1642 9.29664 32.1642C8.39731 32.1642 7.53265 32.5111 6.88274 33.1328C6.56575 33.4496 6.31429 33.8259 6.14274 34.24C5.97118 34.6541 5.88288 35.0979 5.88288 35.5461C5.88288 35.9943 5.97118 36.4382 6.14274 36.8523C6.31429 37.2663 6.56575 37.6426 6.88274 37.9595L15.9532 47.031L2.50774 60.4765C2.30269 60.6816 2.1875 60.9598 2.1875 61.2498C2.1875 61.5398 2.30269 61.818 2.50774 62.0231L6.88274 66.3981C7.08784 66.6031 7.36599 66.7183 7.65602 66.7183C7.94604 66.7183 8.22419 66.6031 8.4293 66.3981L18.658 56.1693C19.9166 57.1006 21.4427 57.5994 23.0082 57.5914C24.5738 57.5833 26.0947 57.0687 27.3435 56.1245C28.3897 56.9285 29.693 57.3236 31.0095 57.2358C32.326 57.148 33.5654 56.5834 34.4955 55.6476L34.9998 55.1401L36.414 56.5543C36.6191 56.7594 36.8972 56.8746 37.1873 56.8746C37.4773 56.8746 37.7554 56.7594 37.9605 56.5543L43.4293 51.0856C43.6343 50.8805 43.7495 50.6023 43.7495 50.3123C43.7495 50.0223 43.6343 49.7441 43.4293 49.539L39.0543 45.164C38.8492 44.959 38.571 44.8438 38.281 44.8438C37.991 44.8438 37.7128 44.959 37.5077 45.164L32.039 50.6328C31.8339 50.8379 31.7188 51.116 31.7188 51.406C31.7188 51.6961 31.8339 51.9742 32.039 52.1793L33.4532 53.5935L32.9457 54.101C32.4192 54.6261 31.73 54.9567 30.9909 55.0388C30.2519 55.1209 29.5069 54.9495 28.878 54.5528C29.6338 53.4949 30.0931 52.2543 30.2085 50.9594C30.3239 49.6645 30.0911 48.3622 29.5343 47.1875H29.5704C31.806 47.1875 35.0774 46.7554 37.0855 44.5329C38.6387 42.8146 39.1418 40.3953 38.5884 37.3284C40.5495 37.4137 43.8384 37.1698 45.8793 34.944C47.4795 33.1995 47.9629 30.6543 47.3209 27.3665C49.3509 27.3042 52.9865 26.8196 55.2363 24.3117C55.9727 23.4445 56.5192 22.4326 56.8406 21.3413C57.162 20.25 57.2511 19.1034 57.1023 17.9756C58.6867 18.3471 60.3533 18.0966 61.7584 17.2756C62.4113 16.8684 62.981 16.341 63.4373 15.7214V42.9153C62.7241 43.3279 62.141 43.9324 61.7543 44.66C61.3676 45.3876 61.1928 46.2091 61.2498 47.031C61.1928 47.853 61.3676 48.6745 61.7543 49.4021C62.141 50.1297 62.7241 50.7342 63.4373 51.1468V53.5935C63.4373 53.8836 63.5525 54.1618 63.7576 54.3669C63.9627 54.5721 64.2409 54.6873 64.531 54.6873C64.7473 54.6873 64.9588 54.7514 65.1387 54.8716C65.3185 54.9918 65.4587 55.1626 65.5415 55.3625C65.6243 55.5623 65.646 55.7823 65.6038 55.9944C65.5615 56.2066 65.4574 56.4015 65.3044 56.5544C65.1515 56.7074 64.9566 56.8116 64.7444 56.8538C64.5322 56.896 64.3123 56.8743 64.1125 56.7915C63.9126 56.7087 63.7418 56.5686 63.6216 56.3887C63.5014 56.2088 63.4373 55.9974 63.4373 55.781H61.2498C61.2499 56.3826 61.4153 56.9725 61.7281 57.4863C62.0408 58.0002 62.4888 58.4182 63.023 58.6946C63.5573 58.9711 64.1572 59.0953 64.7573 59.0538C65.3574 59.0124 65.9346 58.8067 66.4257 58.4594C66.9168 58.112 67.303 57.6364 67.5421 57.0844C67.7811 56.5324 67.8638 55.9253 67.7811 55.3295C67.6985 54.7336 67.4536 54.172 67.0733 53.7059C66.693 53.2399 66.1919 52.8873 65.6248 52.6868V51.1468C66.3379 50.7342 66.921 50.1297 67.3077 49.4021C67.6944 48.6745 67.8692 47.853 67.8123 47.031ZM38.281 47.4839L41.1095 50.3123L37.1873 54.2345L34.3588 51.406L38.281 47.4839ZM8.4293 36.414C8.3154 36.3001 8.22505 36.1649 8.1634 36.0161C8.10176 35.8672 8.07003 35.7077 8.07003 35.5467C8.07003 35.3856 8.10176 35.2261 8.1634 35.0773C8.22505 34.9284 8.3154 34.7932 8.4293 34.6793C8.65933 34.4493 8.97132 34.3201 9.29664 34.3201C9.45772 34.3201 9.61723 34.3518 9.76604 34.4134C9.91486 34.4751 10.0501 34.5654 10.164 34.6793L15.9532 40.4685L14.2185 42.2032L8.4293 36.414ZM15.7651 43.7498L17.4998 42.0151L19.2345 43.7498L17.4998 45.4845L15.7651 43.7498ZM7.65602 64.0782L4.82758 61.2498L19.6873 46.3901L22.5157 49.2185L7.65602 64.0782ZM20.2243 54.6031L22.9685 51.8589L25.7029 54.5932C24.8853 55.1162 23.9355 55.3949 22.965 55.3966C21.9945 55.3984 21.0437 55.1231 20.2243 54.6031ZM27.2495 53.0467L24.5151 50.3123L27.2593 47.5681C27.7796 48.3874 28.055 49.3383 28.0533 50.3088C28.0515 51.2794 27.7727 52.2292 27.2495 53.0467ZM35.469 43.0629C34.0034 44.6882 31.4024 45.001 29.5759 44.9967L36.438 37.7637C36.8504 40.0989 36.531 41.8828 35.469 43.0629ZM44.2737 33.462C42.8923 34.9724 40.4904 35.1912 38.9143 35.1496L45.281 28.4428C45.6091 30.6718 45.281 32.3617 44.2737 33.462ZM53.6165 22.846C52.2183 24.1802 50.392 24.9748 48.4627 25.0882L54.9235 18.2785C55.0268 19.0887 54.9641 19.9114 54.7394 20.6966C54.5147 21.4818 54.1327 22.2131 53.6165 22.846ZM24.0415 47.6512L21.2546 44.8643L62.3227 5.90604L63.0041 6.58745L24.0415 47.6512ZM60.623 15.4085C60.1214 15.6869 59.5692 15.8625 58.9989 15.9251C58.4285 15.9876 57.8514 15.9358 57.3013 15.7728L63.2809 9.46948C62.9429 12.4839 62.0449 14.5215 60.623 15.4085ZM64.531 49.2185C64.0848 49.2185 63.4373 48.3665 63.4373 47.031C63.4373 45.6956 64.0848 44.8435 64.531 44.8435C64.9773 44.8435 65.6248 45.6956 65.6248 47.031C65.6248 48.3665 64.9773 49.2185 64.531 49.2185Z" fill="#338FD1"/>
</svg>
