<svg width="70" height="70" viewBox="0 0 70 70" fill="none" xmlns="http://www.w3.org/2000/svg">
<g clip-path="url(#clip0)">
<path d="M35.0001 10.5C21.4693 10.5 10.5002 21.469 10.5002 34.9999C10.5002 48.5308 21.4693 59.4998 35.0001 59.4998C48.531 59.4998 59.5 48.5308 59.5 34.9999C59.4849 21.4753 48.5247 10.5152 35.0001 10.5ZM35.0001 57.1664C22.7579 57.1664 12.8336 47.2421 12.8336 34.9999C12.8336 22.7577 22.758 12.8334 35.0001 12.8334C47.2423 12.8334 57.1667 22.7577 57.1667 34.9999C57.1529 47.2365 47.2367 57.1526 35.0001 57.1664Z" fill="#338FD1"/>
<path d="M35.0003 15.1665C24.0518 15.1787 15.1793 24.0513 15.167 34.9998C15.167 35.6442 15.6893 36.1664 16.3336 36.1664C16.978 36.1664 17.5002 35.6442 17.5002 34.9998C17.5112 25.3394 25.3398 17.5108 35.0002 17.4999C35.6445 17.4999 36.1668 16.9775 36.1668 16.3333C36.1668 15.689 35.6446 15.1665 35.0003 15.1665Z" fill="#338FD1"/>
<path d="M46.0888 18.5636C46.0865 18.5619 46.0842 18.5604 46.0818 18.5589C45.5521 18.2006 45.0018 17.8662 44.4475 17.5649C43.8846 17.2583 43.3007 16.977 42.7135 16.728C42.1182 16.4756 41.5046 16.2506 40.8906 16.0597C40.2753 15.8685 39.6214 16.2123 39.4301 16.8277C39.2388 17.443 39.5827 18.097 40.198 18.2882C40.7386 18.4563 41.2787 18.654 41.8034 18.8767C42.3218 19.096 42.8356 19.3444 43.3328 19.6144C43.8222 19.8805 44.3075 20.176 44.7763 20.4923C45.309 20.8547 46.0345 20.7168 46.397 20.1842C46.7593 19.6517 46.6215 18.9262 46.0888 18.5636Z" fill="#338FD1"/>
<path d="M49.0178 46.2015C48.5623 45.746 47.8236 45.746 47.368 46.2015C44.0962 49.4951 39.6426 51.3429 35.0002 51.333C34.3559 51.333 33.8336 51.8552 33.8336 52.4996C33.8336 53.1439 34.3559 53.6662 35.0002 53.6662C40.262 53.678 45.3096 51.584 49.0178 47.8512C49.4734 47.3958 49.4734 46.6572 49.0178 46.2015Z" fill="#338FD1"/>
<path d="M69.9932 34.6929C69.8344 31.0726 66.9356 28.1738 63.3153 28.015C62.6124 25.162 61.4801 22.4323 59.957 19.9195C62.5679 17.0751 62.3785 12.6527 59.5341 10.0419C56.8603 7.5877 52.7531 7.5877 50.0793 10.0419C47.5666 8.51889 44.837 7.38659 41.984 6.68372C41.8149 2.82649 38.551 -0.163262 34.6938 0.00585885C31.0735 0.164589 28.1746 3.06343 28.0159 6.68372C25.1629 7.38659 22.4331 8.51889 19.9204 10.0421C17.0761 7.4313 12.6537 7.62065 10.0429 10.4651C7.58868 13.1389 7.58868 17.246 10.0429 19.9198C8.51987 22.4326 7.38757 25.1621 6.6847 28.0152C2.82747 28.1843 -0.162285 31.4482 0.00683541 35.3054C0.165565 38.9257 3.0644 41.8245 6.6847 41.9833C7.38757 44.8363 8.51987 47.566 10.043 50.0788C7.43214 52.9232 7.62149 57.3456 10.4659 59.9564C13.1397 62.4106 17.2469 62.4106 19.9207 59.9564C22.4334 61.4794 25.163 62.6117 28.016 63.3146C28.1851 67.1718 31.4492 70.1616 35.3062 69.9925C38.9265 69.8337 41.8254 66.9349 41.9841 63.3146C44.8371 62.6117 47.5669 61.4794 50.0796 59.9563C52.924 62.5672 57.3465 62.3778 59.9572 59.5334C62.4115 56.8596 62.4115 52.7524 59.9572 50.0786C61.4803 47.5659 62.6126 44.8363 63.3154 41.9833C67.1725 41.8142 70.1623 38.5501 69.9932 34.6929ZM4.66674 36.1658H5.86302C5.90705 37.3109 6.01861 38.4525 6.19689 39.5846C3.96743 39.1955 2.33856 37.2624 2.33351 34.9992C2.3387 32.7359 3.96743 30.8029 6.19689 30.4138C6.01861 31.5458 5.90718 32.6874 5.86302 33.8325H4.66674C4.02239 33.8325 3.50012 34.3548 3.50012 34.9992C3.50012 35.6435 4.02239 36.1658 4.66674 36.1658ZM54.7991 10.5345C57.3691 10.5278 59.4579 12.6059 59.4646 15.176C59.4671 16.1487 59.1648 17.0978 58.5999 17.8898C57.9256 16.9612 57.1976 16.0728 56.4194 15.2294L57.2736 14.3752C57.7291 13.9197 57.7291 13.181 57.2736 12.7254C56.818 12.2699 56.0793 12.2699 55.6238 12.7254L54.7696 13.5797C53.926 12.8015 53.0376 12.0734 52.1091 11.3991C52.8937 10.8375 53.8342 10.5352 54.7991 10.5345ZM35 2.33267C37.2632 2.33786 39.1963 3.96659 39.5854 6.19605C38.4534 6.01777 37.3118 5.90634 36.1666 5.86218V4.6659C36.1666 4.02155 35.6444 3.49928 35 3.49928C34.3556 3.49928 33.8334 4.02168 33.8334 4.6659V5.86218C32.6882 5.90621 31.5466 6.01777 30.4146 6.19605C30.8037 3.96659 32.7368 2.33772 35 2.33267ZM11.9015 11.9006C13.5322 10.352 16.0205 10.1454 17.8844 11.4038C16.958 12.0767 16.0718 12.8032 15.2303 13.5797L14.3761 12.7254C13.9205 12.2699 13.182 12.2699 12.7263 12.7254C12.2707 13.181 12.2707 13.9197 12.7263 14.3752L13.5805 15.2294C12.8023 16.073 12.0743 16.9614 11.4 17.89C10.8383 17.1055 10.5359 16.1649 10.5354 15.2C10.5318 13.9619 11.0237 12.7738 11.9015 11.9006ZM15.2009 59.4638C12.6308 59.4705 10.5421 57.3924 10.5354 54.8223C10.5329 53.8496 10.8352 52.9005 11.4001 52.1085C12.0744 53.0371 12.8024 53.9255 13.5806 54.7689L12.7264 55.6231C12.2709 56.0787 12.2709 56.8172 12.7264 57.2729C13.182 57.7284 13.9206 57.7284 14.3762 57.2729L15.2304 56.4187C16.074 57.1969 16.9624 57.9249 17.8909 58.5992C17.1063 59.1608 16.1658 59.4631 15.2009 59.4638ZM35 67.6656C32.7368 67.6605 30.8037 66.0317 30.4146 63.8023C31.5466 63.9805 32.6882 64.092 33.8334 64.1361V65.3324C33.8334 65.9768 34.3556 66.499 35 66.499C35.6444 66.499 36.1666 65.9768 36.1666 65.3324V64.1361C37.3118 64.0921 38.4534 63.9805 39.5854 63.8023C39.1963 66.0319 37.2632 67.6606 35 67.6656ZM58.0985 58.0977C56.4678 59.6463 53.9795 59.8529 52.1156 58.5945C53.042 57.9216 53.9282 57.1951 54.7697 56.4187L55.6239 57.2729C56.0795 57.7284 56.818 57.7284 57.2737 57.2729C57.7294 56.8173 57.7293 56.0787 57.2737 55.6231L56.4195 54.7689C57.1977 53.9253 57.9257 53.0369 58.6 52.1084C59.1617 52.8928 59.4641 53.8335 59.4646 54.7983C59.4682 56.0364 58.9763 57.2245 58.0985 58.0977ZM35 61.8324C20.1804 61.8324 8.16673 49.8187 8.16673 34.9992C8.16673 20.1796 20.1804 8.16589 35 8.16589C49.8196 8.16589 61.8333 20.1796 61.8333 34.9992C61.8163 49.8118 49.8126 61.8156 35 61.8324ZM67.5991 35.7886C67.2648 37.7298 65.7444 39.2503 63.8031 39.5846C63.9814 38.4525 64.0928 37.3109 64.137 36.1658H65.3333C65.9776 36.1658 66.4999 35.6435 66.4999 34.9992C66.4999 34.3548 65.9776 33.8325 65.3333 33.8325H64.137C64.093 32.6874 63.9814 31.5458 63.8031 30.4138C66.3355 30.8498 68.0351 33.2561 67.5991 35.7886Z" fill="#338FD1"/>
</g>
<defs>
<clipPath id="clip0">
<rect width="70" height="70" fill="white"/>
</clipPath>
</defs>
</svg>
