<svg width="45" height="45" viewBox="0 0 45 45" fill="none" xmlns="http://www.w3.org/2000/svg">
<path d="M2.8125 6H5.625C6.01337 6 6.32812 6.31503 6.32812 6.70312V20.7656C6.32812 21.154 6.01337 21.4688 5.625 21.4688H2.8125C2.42413 21.4688 2.10938 21.154 2.10938 20.7656V6.70312C2.10938 6.31503 2.42413 6 2.8125 6Z" fill="#338FD1"/>
<path d="M2.10938 35.5312C3.12836 35.5527 4.13141 35.278 4.99713 34.7402C5.65521 34.3195 6.42398 34.1052 7.20483 34.125C7.98596 34.1052 8.755 34.3195 9.41364 34.7402C10.2788 35.2783 11.2819 35.5532 12.3006 35.5312C13.3193 35.5524 14.3221 35.2777 15.1875 34.7402C15.8456 34.3192 16.6146 34.1049 17.3963 34.125C18.1772 34.1052 18.9465 34.3195 19.6051 34.7402C20.4708 35.2783 21.4742 35.5529 22.4931 35.5312C23.5124 35.5532 24.5163 35.2783 25.3828 34.7402C26.7413 33.9201 28.4425 33.9201 29.801 34.7402C31.5829 35.7946 33.7972 35.7946 35.5789 34.7402C36.9388 33.9198 38.6414 33.9198 40.0015 34.7402C40.8675 35.2786 41.8714 35.5532 42.8906 35.5312C43.279 35.5312 43.5938 35.2165 43.5938 34.8281C43.5938 34.44 43.279 34.125 42.8906 34.125C42.1084 34.145 41.3388 33.9308 40.6794 33.5098C38.8974 32.4551 36.6823 32.4551 34.9005 33.5098C33.5415 34.3302 31.84 34.3302 30.4813 33.5098C28.6993 32.4551 26.4847 32.4551 24.7028 33.5098C23.3446 34.3302 21.6433 34.3302 20.2852 33.5098C19.4189 32.972 18.4156 32.6973 17.3963 32.7187C16.3773 32.6968 15.3743 32.972 14.5088 33.5098C13.8507 33.9308 13.0817 34.145 12.3006 34.125C11.5194 34.145 10.7507 33.9308 10.0926 33.5098C9.22687 32.9723 8.22354 32.6976 7.20483 32.7187C6.1864 32.6968 5.18307 32.972 4.3179 33.5098C3.65955 33.9308 2.8905 34.145 2.10938 34.125C1.72101 34.125 1.40625 34.44 1.40625 34.8281C1.40625 35.2165 1.72101 35.5312 2.10938 35.5312Z" fill="#338FD1"/>
<path d="M42.8906 36.9375C42.1084 36.9576 41.3388 36.7433 40.6794 36.3223C38.8974 35.2676 36.6823 35.2676 34.9005 36.3223C33.5415 37.1427 31.84 37.1427 30.4813 36.3223C28.6993 35.2676 26.4847 35.2676 24.7028 36.3223C23.3446 37.1427 21.6433 37.1427 20.2852 36.3223C19.4189 35.7845 18.4156 35.5098 17.3963 35.5312C16.3773 35.5093 15.3743 35.7845 14.5088 36.3223C13.8507 36.7433 13.0817 36.9576 12.3006 36.9375C11.5194 36.9576 10.7507 36.7433 10.0926 36.3223C9.22687 35.7848 8.22354 35.5101 7.20483 35.5312C6.1864 35.5093 5.18307 35.7845 4.3179 36.3223C3.65955 36.7433 2.8905 36.9576 2.10938 36.9375C1.72101 36.9375 1.40625 37.2525 1.40625 37.6406C1.40625 38.029 1.72101 38.3438 2.10938 38.3438C3.12836 38.3652 4.13141 38.0905 4.99713 37.5527C5.65521 37.132 6.42398 36.9177 7.20483 36.9375C7.98596 36.9177 8.755 37.132 9.41364 37.5527C10.2788 38.0908 11.2819 38.3657 12.3006 38.3438C13.3193 38.3649 14.3221 38.0902 15.1875 37.5527C15.8456 37.1317 16.6146 36.9175 17.3963 36.9375C18.1772 36.9177 18.9465 37.132 19.6051 37.5527C20.4708 38.0908 21.4742 38.3654 22.4931 38.3438C23.5124 38.3657 24.5163 38.0908 25.3828 37.5527C26.7413 36.7326 28.4425 36.7326 29.801 37.5527C31.5829 38.6071 33.7972 38.6071 35.5789 37.5527C36.9388 36.7323 38.6414 36.7323 40.0015 37.5527C40.8675 38.0911 41.8714 38.3657 42.8906 38.3438C43.279 38.3438 43.5938 38.029 43.5938 37.6406C43.5938 37.2525 43.279 36.9375 42.8906 36.9375Z" fill="#338FD1"/>
<path d="M5.62506 31.3125H39.3751C41.4333 31.3133 43.1903 29.8266 43.5306 27.7969H1.46948C1.80978 29.8266 3.56677 31.3133 5.62506 31.3125Z" fill="#338FD1"/>
<path d="M39.3751 22.875H13.2748L11.9463 12.2438C11.9035 11.8914 11.6049 11.6261 11.2501 11.625H7.73444V22.875H5.62506C3.56677 22.8745 1.80978 24.3609 1.46948 26.3906H43.5306C43.1903 24.3609 41.4333 22.8745 39.3751 22.875Z" fill="#338FD1"/>
<path d="M33.1032 13.7275C32.3795 12.433 31.0141 11.6291 29.5312 11.625H20.3906C20.0023 11.625 19.6875 11.94 19.6875 12.3281V21.4688H37.5656L33.1032 13.7275ZM26.0156 17.25V13.0312H29.5312C30.5107 13.0337 31.4113 13.5701 31.8796 14.4306L33.1032 16.5469L33.9118 17.9531H26.7188C26.3304 17.9531 26.0156 17.6384 26.0156 17.25Z" fill="#338FD1"/>
</svg>
