<svg width="45" height="45" viewBox="0 0 45 45" fill="none" xmlns="http://www.w3.org/2000/svg">
<path d="M12.3047 8.87695C12.7901 8.87695 13.1836 8.48345 13.1836 7.99805C13.1836 7.51264 12.7901 7.11914 12.3047 7.11914C11.8193 7.11914 11.4258 7.51264 11.4258 7.99805C11.4258 8.48345 11.8193 8.87695 12.3047 8.87695Z" fill="#338FD1"/>
<path d="M45 15.8238V14.2717C45 13.9492 44.8233 13.6526 44.5399 13.4989L39.7266 10.8902V0.878906C39.7266 0.393486 39.333 0 38.8477 0H33.5742C33.0889 0 32.6953 0.393486 32.6953 0.878906V7.07933L22.9188 1.78049C22.6575 1.63898 22.3423 1.6389 22.0813 1.78049L15.3961 5.40387C14.9694 5.63511 14.8108 6.1686 15.0421 6.5954C15.2735 7.0222 15.807 7.18058 16.2337 6.94925L22.5 3.55289L43.2422 14.795V15.8238C43.2422 16.439 42.8806 17.9258 40.5945 17.3405C40.5809 17.3326 22.9295 7.8191 22.917 7.81233C22.6567 7.67197 22.3433 7.67197 22.083 7.81233C22.0742 7.81708 4.37836 17.355 4.36939 17.36C3.1986 18.0105 1.75781 17.1655 1.75781 15.8238V14.795L9.28143 10.7173C9.70813 10.486 9.86669 9.95247 9.63536 9.52576C9.40403 9.09897 8.87036 8.94067 8.44383 9.17183L0.460107 13.4989C0.176572 13.6526 0 13.9492 0 14.2717V15.8238C0 17.563 1.23012 18.9471 2.82067 19.2734C2.70097 19.6291 2.63672 20.0057 2.63672 20.3906C2.63672 21.4399 3.09938 22.3827 3.83071 23.0273C3.09938 23.672 2.63672 24.6148 2.63672 25.6641C2.63672 26.7133 3.09938 27.6561 3.83071 28.3008C3.09938 28.9455 2.63672 29.8883 2.63672 30.9375C2.63672 31.9867 3.09938 32.9295 3.83071 33.5742C3.09938 34.2189 2.63672 35.1617 2.63672 36.2109C2.63672 37.2602 3.09938 38.203 3.83071 38.8477C3.09938 39.4923 2.63672 40.4351 2.63672 41.4844C2.63672 43.4229 4.21383 45 6.15234 45H38.8477C40.7862 45 42.3633 43.4229 42.3633 41.4844C42.3633 40.4351 41.9006 39.4923 41.1693 38.8477C41.9006 38.203 42.3633 37.2602 42.3633 36.2109C42.3633 35.1617 41.9006 34.2189 41.1693 33.5742C41.9006 32.9295 42.3633 31.9867 42.3633 30.9375C42.3633 29.8883 41.9006 28.9455 41.1693 28.3008C41.9006 27.6561 42.3633 26.7133 42.3633 25.6641C42.3633 24.6148 41.9006 23.672 41.1693 23.0273C41.9006 22.3827 42.3633 21.4399 42.3633 20.3906C42.3633 20.0055 42.299 19.6287 42.1791 19.273C43.7679 18.9475 45 17.5653 45 15.8238ZM34.4531 1.75781H37.9688V9.93744L34.4531 8.03197V1.75781ZM26.8945 23.9062V30.0586H25.1367C24.6514 30.0586 24.2578 30.4521 24.2578 30.9375C24.2578 31.4229 24.6514 31.8164 25.1367 31.8164H26.8945V37.9688H18.1055V23.9062H26.8945ZM16.3477 27.4219H9.19503C9.49518 26.9044 9.66797 26.3042 9.66797 25.6641C9.66797 25.024 9.49518 24.4237 9.19503 23.9062H16.3477V27.4219ZM16.3477 29.1797V32.6953H9.19503C9.49518 32.1778 9.66797 31.5776 9.66797 30.9375C9.66797 30.2974 9.49518 29.6972 9.19503 29.1797H16.3477ZM16.3477 34.4531V37.9688H9.19503C9.49518 37.4512 9.66797 36.851 9.66797 36.2109C9.66797 35.5708 9.49518 34.9706 9.19503 34.4531H16.3477ZM13.1836 39.7266V43.2422H9.19503C9.49518 42.7247 9.66797 42.1245 9.66797 41.4844C9.66797 40.8443 9.49518 40.2441 9.19503 39.7266H13.1836ZM14.9414 39.7266H30.0586V43.2422H14.9414V39.7266ZM31.8164 39.7257H35.805C35.5048 40.2441 35.332 40.8443 35.332 41.4844C35.332 42.1245 35.5048 42.7247 35.805 43.2422H31.8164V39.7257ZM28.6523 37.9688V34.4522H35.805C35.5048 34.9706 35.332 35.5708 35.332 36.2109C35.332 36.851 35.5048 37.4512 35.805 37.9688H28.6523ZM28.6523 32.6953V29.1788H35.805C35.5048 29.6972 35.332 30.2974 35.332 30.9375C35.332 31.5776 35.5048 32.1778 35.805 32.6953H28.6523ZM28.6523 27.4219V23.9054H35.805C35.5048 24.4237 35.332 25.024 35.332 25.6641C35.332 26.3042 35.5048 26.9044 35.805 27.4219H28.6523ZM9.19503 22.1484C9.49518 21.6309 9.66797 21.0307 9.66797 20.3906C9.66797 19.7505 9.49518 19.1494 9.19503 18.6319H35.8051C35.5048 19.1494 35.332 19.7505 35.332 20.3906C35.332 21.0307 35.5048 21.6309 35.805 22.1484H9.19503ZM16.384 12.8809L20.3781 16.875H8.97381L16.384 12.8809ZM36.0257 16.875H24.6219L28.6158 12.881L36.0257 16.875ZM22.5 9.58447L27.0005 12.0103L22.5 16.511L17.9994 12.0103L22.5 9.58447ZM4.39453 20.3906C4.39453 19.4324 5.17544 18.6328 6.15234 18.6328C7.1216 18.6328 7.91016 19.4214 7.91016 20.3906C7.91016 21.3599 7.1216 22.1484 6.15234 22.1484C5.18309 22.1484 4.39453 21.3599 4.39453 20.3906ZM4.39453 25.6641C4.39453 24.6948 5.18309 23.9062 6.15234 23.9062C7.1216 23.9062 7.91016 24.6948 7.91016 25.6641C7.91016 26.6333 7.1216 27.4219 6.15234 27.4219C5.18309 27.4219 4.39453 26.6333 4.39453 25.6641ZM4.39453 30.9375C4.39453 29.9682 5.18309 29.1797 6.15234 29.1797C7.1216 29.1797 7.91016 29.9682 7.91016 30.9375C7.91016 31.9068 7.1216 32.6953 6.15234 32.6953C5.18309 32.6953 4.39453 31.9068 4.39453 30.9375ZM4.39453 36.2109C4.39453 35.2417 5.18309 34.4531 6.15234 34.4531C7.1216 34.4531 7.91016 35.2417 7.91016 36.2109C7.91016 37.1802 7.1216 37.9688 6.15234 37.9688C5.18309 37.9688 4.39453 37.1802 4.39453 36.2109ZM4.39453 41.4844C4.39453 40.5151 5.18309 39.7266 6.15234 39.7266C7.1216 39.7266 7.91016 40.5151 7.91016 41.4844C7.91016 42.4536 7.1216 43.2422 6.15234 43.2422C5.18309 43.2422 4.39453 42.4536 4.39453 41.4844ZM40.6055 41.4844C40.6055 42.4536 39.8169 43.2422 38.8477 43.2422C37.8784 43.2422 37.0898 42.4536 37.0898 41.4844C37.0898 40.5151 37.8784 39.7266 38.8477 39.7266C39.8169 39.7266 40.6055 40.5151 40.6055 41.4844ZM40.6055 36.2109C40.6055 37.1802 39.8169 37.9688 38.8477 37.9688C37.8784 37.9688 37.0898 37.1802 37.0898 36.2109C37.0898 35.2417 37.8784 34.4531 38.8477 34.4531C39.8169 34.4531 40.6055 35.2417 40.6055 36.2109ZM40.6055 30.9375C40.6055 31.9068 39.8169 32.6953 38.8477 32.6953C37.8784 32.6953 37.0898 31.9068 37.0898 30.9375C37.0898 29.9682 37.8784 29.1797 38.8477 29.1797C39.8169 29.1797 40.6055 29.9682 40.6055 30.9375ZM40.6055 25.6641C40.6055 26.6333 39.8169 27.4219 38.8477 27.4219C37.8784 27.4219 37.0898 26.6333 37.0898 25.6641C37.0898 24.6948 37.8784 23.9062 38.8477 23.9062C39.8169 23.9062 40.6055 24.6948 40.6055 25.6641ZM37.0898 20.3906C37.0898 19.4214 37.8784 18.6328 38.8477 18.6328C39.8197 18.6328 40.6055 19.4269 40.6055 20.3906C40.6055 21.3599 39.8169 22.1484 38.8477 22.1484C37.8784 22.1484 37.0898 21.3599 37.0898 20.3906Z" fill="#338FD1"/>
</svg>
